# xmcd CD database file
#
# Track frame offsets:
#	150
#	15043
#	27447
#	40199
#	51832
#	64490
#	78508
#	93695
#	107836
#	120648
#	131248
#	143577
#	154539
#	166338
#	176740
#	192172
#	204077
#	216861
#
# Disc length: 3059 seconds
#
# Revision: 0
# Processed by: cddbd v1.5.2PL0 Copyright (c) Steve Scherf et al.
# Submitted via: CDex 2.01
#
DISCID=f50bf112
DTITLE=Aretha Frankliln - The Classic Years [CD1)
DYEAR=2014
DGENRE=Blues
TTITLE0=Try A Little Tenderness
TTITLE1=Love Is The Only Thing
TTITLE2=Rough Lover
TTITLE3=Just For A Thrill
TTITLE4=I Surrender, Dear
TTITLE5=Look For The Silver Lining
TTITLE6=That Lucky Old Sun (Just Rolls Around Heaven All Day)
TTITLE7=All Night Long
TTITLE8=How Deep Is The Ocean
TTITLE9=You Made Me Love You
TTITLE10=Are You Sure
TTITLE11=Right Now
TTITLE12=Lover Come Back To Me
TTITLE13=Ac-Cent-Tchu-Ate The Positive
TTITLE14=Sweet Lover
TTITLE15=Exactly Like You
TTITLE16=Without The One You Love
TTITLE17=Who Needs You
EXTD=YEAR: 2014
EXTT0=
EXTT1=
EXTT2=
EXTT3=
EXTT4=
EXTT5=
EXTT6=
EXTT7=
EXTT8=
EXTT9=
EXTT10=
EXTT11=
EXTT12=
EXTT13=
EXTT14=
EXTT15=
EXTT16=
EXTT17=
PLAYORDER=
